<svg xmlns="http://www.w3.org/2000/svg" width="1200" height="630" viewBox="0 0 1200 630">
  <defs>
    <linearGradient id="bg" x1="0" y1="0" x2="1" y2="1">
      <stop offset="0" stop-color="#0a0e14"/>
      <stop offset="1" stop-color="#0d1117"/>
    </linearGradient>
    <linearGradient id="accent" x1="0" y1="0" x2="1" y2="0">
      <stop offset="0" stop-color="#58e6c4"/>
      <stop offset="1" stop-color="#79c0ff"/>
    </linearGradient>
  </defs>

  <rect width="1200" height="630" fill="url(#bg)"/>

  <g opacity="0.06" stroke="#58e6c4" stroke-width="1">
    <line x1="0" y1="105" x2="1200" y2="105"/>
    <line x1="0" y1="210" x2="1200" y2="210"/>
    <line x1="0" y1="315" x2="1200" y2="315"/>
    <line x1="0" y1="420" x2="1200" y2="420"/>
    <line x1="0" y1="525" x2="1200" y2="525"/>
    <line x1="200" y1="0" x2="200" y2="630"/>
    <line x1="400" y1="0" x2="400" y2="630"/>
    <line x1="600" y1="0" x2="600" y2="630"/>
    <line x1="800" y1="0" x2="800" y2="630"/>
    <line x1="1000" y1="0" x2="1000" y2="630"/>
  </g>

  <text x="100" y="200" font-family="'JetBrains Mono',monospace" font-size="24" fill="#58e6c4" opacity="0.7">brian@portfolio: ~$ whoami</text>

  <text x="100" y="300" font-family="Inter,sans-serif" font-size="72" font-weight="800" fill="#f0f6fc">Brian Van Bellinghen</text>

  <text x="100" y="370" font-family="Inter,sans-serif" font-size="40" font-weight="400" fill="#a0aab6">Développeur <tspan fill="url(#accent)" font-weight="600">Fullstack</tspan> · Backend Specialist</text>

  <g transform="translate(100, 460)">
    <rect x="0" y="0" width="150" height="44" rx="8" fill="#1e2530"/>
    <text x="75" y="30" font-family="'JetBrains Mono',monospace" font-size="20" fill="#58e6c4" text-anchor="middle">Python</text>
    <rect x="165" y="0" width="130" height="44" rx="8" fill="#1e2530"/>
    <text x="230" y="30" font-family="'JetBrains Mono',monospace" font-size="20" fill="#58e6c4" text-anchor="middle">Django</text>
    <rect x="310" y="0" width="100" height="44" rx="8" fill="#1e2530"/>
    <text x="360" y="30" font-family="'JetBrains Mono',monospace" font-size="20" fill="#58e6c4" text-anchor="middle">Java</text>
    <rect x="425" y="0" width="180" height="44" rx="8" fill="#1e2530"/>
    <text x="515" y="30" font-family="'JetBrains Mono',monospace" font-size="20" fill="#58e6c4" text-anchor="middle">Spring Boot</text>
    <rect x="620" y="0" width="120" height="44" rx="8" fill="#1e2530"/>
    <text x="680" y="30" font-family="'JetBrains Mono',monospace" font-size="20" fill="#58e6c4" text-anchor="middle">Docker</text>
  </g>

  <text x="1100" y="585" font-family="'JetBrains Mono',monospace" font-size="20" fill="#8b949e" text-anchor="end" opacity="0.5">portefolio.b-services.be</text>
</svg>
